<svg data-v-423bf9ae="" xmlns="http://www.w3.org/2000/svg" viewBox="0 0 445 90" class="iconLeft"><!----><!----><!----><g data-v-423bf9ae="" id="c168ba09-e4fc-4c4f-8512-8c2b7f38f91a" fill="#000000" transform="matrix(4.418261864764637,0,0,4.418261864764637,110.480142420151,-3.5567004198063827)"><path d="M-0.35 17.78L-0.35 17.49L-0.35 17.49Q0.21 17.40 0.57 17.14L0.57 17.14L0.57 17.14Q0.92 16.87 1.12 16.21L1.12 16.21L1.12 16.21Q1.32 15.55 1.32 14.38L1.32 14.38L1.32 6.72L1.32 6.72Q1.32 6.19 1.24 5.95L1.24 5.95L1.24 5.95Q1.16 5.71 0.97 5.63L0.97 5.63L0.97 5.63Q0.77 5.54 0.32 5.52L0.32 5.52L0.32 5.24L0.32 5.24Q1.08 5.28 2.66 5.28L2.66 5.28L2.66 5.28Q4.30 5.28 5.15 5.24L5.15 5.24L5.15 5.52L5.15 5.52Q4.70 5.54 4.50 5.63L4.50 5.63L4.50 5.63Q4.30 5.71 4.23 5.95L4.23 5.95L4.23 5.95Q4.16 6.19 4.16 6.72L4.16 6.72L4.16 11.84L4.16 13.01L4.16 13.01Q4.16 13.82 4.11 14.43L4.11 14.43L4.11 14.43Q4.06 15.05 3.92 15.50L3.92 15.50L3.92 15.50Q3.58 16.52 2.51 17.15L2.51 17.15L2.51 17.15Q1.43 17.78-0.35 17.78L-0.35 17.78ZM13.13 7.73L13.13 13.62L13.13 13.62Q13.13 14.27 13.31 14.56L13.31 14.56L13.31 14.56Q13.48 14.85 13.92 14.85L13.92 14.85L13.92 15.15L13.92 15.15Q13.48 15.11 13.05 15.11L13.05 15.11L13.05 15.11Q11.59 15.11 10.61 15.30L10.61 15.30L10.61 14.29L10.61 14.29Q9.98 15.34 8.39 15.34L8.39 15.34L8.39 15.34Q7.27 15.34 6.80 14.78L6.80 14.78L6.80 14.78Q6.59 14.53 6.50 14.11L6.50 14.11L6.50 14.11Q6.40 13.68 6.40 12.98L6.40 12.98L6.40 9.41L6.40 9.41Q6.40 8.76 6.22 8.47L6.22 8.47L6.22 8.47Q6.05 8.18 5.61 8.18L5.61 8.18L5.61 7.88L5.61 7.88Q6.05 7.92 6.48 7.92L6.48 7.92L6.48 7.92Q7.94 7.92 8.92 7.73L8.92 7.73L8.92 13.73L8.92 13.73Q8.92 14.18 9.08 14.40L9.08 14.40L9.08 14.40Q9.24 14.62 9.60 14.62L9.60 14.62L9.60 14.62Q10.01 14.62 10.31 14.33L10.31 14.33L10.31 14.33Q10.61 14.04 10.61 13.61L10.61 13.61L10.61 9.41L10.61 9.41Q10.61 8.76 10.44 8.47L10.44 8.47L10.44 8.47Q10.26 8.18 9.83 8.18L9.83 8.18L9.83 7.88L9.83 7.88Q10.26 7.92 10.70 7.92L10.70 7.92L10.70 7.92Q12.15 7.92 13.13 7.73L13.13 7.73ZM17.72 4.20L17.72 13.85L17.72 13.85Q17.72 14.42 17.90 14.64L17.90 14.64L17.90 14.64Q18.07 14.85 18.51 14.85L18.51 14.85L18.51 15.15L18.51 15.15Q17.00 15.09 16.52 15.09L16.52 15.09L16.52 15.09Q16.04 15.09 14.42 15.15L14.42 15.15L14.42 14.85L14.42 14.85Q14.85 14.85 15.03 14.64L15.03 14.64L15.03 14.64Q15.20 14.42 15.20 13.85L15.20 13.85L15.20 5.88L15.20 5.88Q15.20 5.24 15.03 4.94L15.03 4.94L15.03 4.94Q14.85 4.65 14.42 4.65L14.42 4.65L14.42 4.35L14.42 4.35Q14.85 4.40 15.29 4.40L15.29 4.40L15.29 4.40Q16.74 4.40 17.72 4.20L17.72 4.20ZM25.02 7.83L21.88 14.94L22.08 14.94L22.08 14.94Q23.00 14.94 23.70 14.31L23.70 14.31L23.70 14.31Q24.39 13.69 24.50 12.26L24.50 12.26L24.78 12.26L24.78 12.26Q24.78 14.36 24.84 15.20L24.84 15.20L24.84 15.20Q23.67 15.15 22.09 15.15L22.09 15.15L22.09 15.15Q20.69 15.15 19.12 15.22L19.12 15.22L22.26 8.11L21.98 8.11L21.98 8.11Q21.07 8.11 20.41 8.73L20.41 8.73L20.41 8.73Q19.75 9.35 19.64 10.78L19.64 10.78L19.36 10.78L19.36 10.78Q19.36 8.68 19.31 7.84L19.31 7.84L19.31 7.84Q20.47 7.90 22.05 7.90L22.05 7.90L22.05 7.90Q23.45 7.90 25.02 7.83L25.02 7.83ZM33.71 5.24L33.71 5.52L33.71 5.52Q33.26 5.54 33.06 5.63L33.06 5.63L33.06 5.63Q32.86 5.71 32.79 5.95L32.79 5.95L32.79 5.95Q32.72 6.19 32.72 6.72L32.72 6.72L32.72 13.66L32.72 13.66Q32.72 14.20 32.80 14.43L32.80 14.43L32.80 14.43Q32.87 14.67 33.07 14.76L33.07 14.76L33.07 14.76Q33.26 14.84 33.71 14.87L33.71 14.87L33.71 15.15L33.71 15.15Q32.90 15.11 31.37 15.11L31.37 15.11L31.37 15.11Q29.68 15.11 28.88 15.15L28.88 15.15L28.88 14.87L28.88 14.87Q29.33 14.84 29.53 14.76L29.53 14.76L29.53 14.76Q29.74 14.67 29.81 14.43L29.81 14.43L29.81 14.43Q29.88 14.20 29.88 13.66L29.88 13.66L29.88 6.72L29.88 6.72Q29.88 6.19 29.80 5.95L29.80 5.95L29.80 5.95Q29.72 5.71 29.53 5.63L29.53 5.63L29.53 5.63Q29.33 5.54 28.88 5.52L28.88 5.52L28.88 5.24L28.88 5.24Q29.68 5.28 31.37 5.28L31.37 5.28L31.37 5.28Q32.89 5.28 33.71 5.24L33.71 5.24ZM39.93 7.69L39.93 7.69Q41.05 7.69 41.51 8.25L41.51 8.25L41.51 8.25Q41.72 8.50 41.82 8.93L41.82 8.93L41.82 8.93Q41.92 9.35 41.92 10.05L41.92 10.05L41.92 13.85L41.92 13.85Q41.92 14.42 42.09 14.64L42.09 14.64L42.09 14.64Q42.27 14.85 42.70 14.85L42.70 14.85L42.70 15.15L42.70 15.15Q41.19 15.09 40.74 15.09L40.74 15.09L40.74 15.09Q40.26 15.09 38.75 15.15L38.75 15.15L38.75 14.85L38.75 14.85Q39.12 14.85 39.26 14.64L39.26 14.64L39.26 14.64Q39.40 14.42 39.40 13.85L39.40 13.85L39.40 9.30L39.40 9.30Q39.40 8.85 39.23 8.63L39.23 8.63L39.23 8.63Q39.07 8.41 38.71 8.41L38.71 8.41L38.71 8.41Q38.30 8.41 38.00 8.70L38.00 8.70L38.00 8.70Q37.70 8.99 37.70 9.42L37.70 9.42L37.70 13.85L37.70 13.85Q37.70 14.42 37.84 14.64L37.84 14.64L37.84 14.64Q37.98 14.85 38.35 14.85L38.35 14.85L38.35 15.15L38.35 15.15Q36.95 15.09 36.50 15.09L36.50 15.09L36.50 15.09Q36.02 15.09 34.40 15.15L34.40 15.15L34.40 14.85L34.40 14.85Q34.83 14.85 35.01 14.64L35.01 14.64L35.01 14.64Q35.18 14.42 35.18 13.85L35.18 13.85L35.18 9.41L35.18 9.41Q35.18 8.76 35.01 8.47L35.01 8.47L35.01 8.47Q34.83 8.18 34.40 8.18L34.40 8.18L34.40 7.88L34.40 7.88Q34.85 7.92 35.27 7.92L35.27 7.92L35.27 7.92Q36.72 7.92 37.70 7.73L37.70 7.73L37.70 8.74L37.70 8.74Q38.33 7.69 39.93 7.69L39.93 7.69ZM46.09 7.69L46.09 7.69Q46.63 7.69 47.12 7.80L47.12 7.80L47.12 7.80Q47.60 7.92 47.85 8.06L47.85 8.06L47.85 8.06Q48.01 8.15 48.10 8.15L48.10 8.15L48.10 8.15Q48.40 8.15 48.45 7.70L48.45 7.70L48.73 7.70L48.73 7.70Q48.68 8.43 48.68 10.22L48.68 10.22L48.40 10.22L48.40 10.22Q48.29 9.30 47.87 8.66L47.87 8.66L47.87 8.66Q47.46 8.02 46.68 8.02L46.68 8.02L46.68 8.02Q46.33 8.02 46.09 8.23L46.09 8.23L46.09 8.23Q45.85 8.44 45.85 8.81L45.85 8.81L45.85 8.81Q45.85 9.27 46.16 9.63L46.16 9.63L46.16 9.63Q46.47 9.98 47.12 10.50L47.12 10.50L47.12 10.50Q47.15 10.51 47.53 10.82L47.53 10.82L47.53 10.82Q48.31 11.47 48.68 11.96L48.68 11.96L48.68 11.96Q49.04 12.46 49.04 13.19L49.04 13.19L49.04 13.19Q49.04 13.80 48.66 14.30L48.66 14.30L48.66 14.30Q48.29 14.80 47.63 15.07L47.63 15.07L47.63 15.07Q46.98 15.34 46.21 15.34L46.21 15.34L46.21 15.34Q45.33 15.34 44.77 14.99L44.77 14.99L44.77 14.99Q44.53 14.87 44.38 14.81L44.38 14.81L44.38 14.81Q44.23 14.76 44.07 14.76L44.07 14.76L44.07 14.76Q43.81 14.76 43.68 15.25L43.68 15.25L43.40 15.25L43.40 15.25Q43.46 14.45 43.46 12.45L43.46 12.45L43.74 12.45L43.74 12.45Q43.86 13.59 44.35 14.29L44.35 14.29L44.35 14.29Q44.84 14.99 45.58 14.99L45.58 14.99L45.58 14.99Q45.93 14.99 46.16 14.80L46.16 14.80L46.16 14.80Q46.40 14.60 46.40 14.22L46.40 14.22L46.40 14.22Q46.40 13.83 46.23 13.52L46.23 13.52L46.23 13.52Q46.07 13.22 45.84 12.97L45.84 12.97L45.84 12.97Q45.61 12.73 45.09 12.26L45.09 12.26L45.09 12.26Q44.51 11.72 44.20 11.40L44.20 11.40L44.20 11.40Q43.89 11.07 43.67 10.65L43.67 10.65L43.67 10.65Q43.46 10.22 43.46 9.70L43.46 9.70L43.46 9.70Q43.46 9.10 43.82 8.64L43.82 8.64L43.82 8.64Q44.18 8.18 44.79 7.93L44.79 7.93L44.79 7.93Q45.39 7.69 46.09 7.69L46.09 7.69ZM51.72 4.20L51.72 4.20Q52.44 4.20 52.84 4.51L52.84 4.51L52.84 4.51Q53.24 4.82 53.24 5.40L53.24 5.40L53.24 5.40Q53.24 5.99 52.84 6.30L52.84 6.30L52.84 6.30Q52.44 6.61 51.72 6.61L51.72 6.61L51.72 6.61Q50.97 6.61 50.58 6.30L50.58 6.30L50.58 6.30Q50.19 5.99 50.19 5.40L50.19 5.40L50.19 5.40Q50.19 4.82 50.58 4.51L50.58 4.51L50.58 4.51Q50.97 4.20 51.72 4.20L51.72 4.20ZM53.06 7.73L53.06 13.85L53.06 13.85Q53.06 14.42 53.24 14.64L53.24 14.64L53.24 14.64Q53.41 14.85 53.84 14.85L53.84 14.85L53.84 15.15L53.84 15.15Q52.33 15.09 51.86 15.09L51.86 15.09L51.86 15.09Q51.38 15.09 49.76 15.15L49.76 15.15L49.76 14.85L49.76 14.85Q50.19 14.85 50.37 14.64L50.37 14.64L50.37 14.64Q50.54 14.42 50.54 13.85L50.54 13.85L50.54 9.41L50.54 9.41Q50.54 8.76 50.37 8.47L50.37 8.47L50.37 8.47Q50.19 8.18 49.76 8.18L49.76 8.18L49.76 7.88L49.76 7.88Q50.20 7.92 50.62 7.92L50.62 7.92L50.62 7.92Q52.08 7.92 53.06 7.73L53.06 7.73ZM61.31 9.30L61.31 9.30Q61.01 9.30 60.80 9.09L60.80 9.09L60.80 9.09Q60.58 8.89 60.58 8.53L60.58 8.53L60.58 8.53Q60.58 8.19 60.77 7.80L60.77 7.80L60.77 7.80Q60.16 8.05 59.86 8.51L59.86 8.51L59.86 8.51Q60.38 9.06 60.38 9.93L60.38 9.93L60.38 9.93Q60.38 11.03 59.56 11.60L59.56 11.60L59.56 11.60Q58.74 12.17 57.37 12.17L57.37 12.17L57.37 12.17Q57.11 12.17 56.98 12.15L56.98 12.15L56.98 12.15Q56.62 12.40 56.62 12.74L56.62 12.74L56.62 12.74Q56.62 13.19 57.12 13.19L57.12 13.19L58.48 13.19L58.48 13.19Q59.91 13.19 60.71 13.67L60.71 13.67L60.71 13.67Q61.52 14.15 61.52 15.18L61.52 15.18L61.52 15.18Q61.52 15.90 61.05 16.49L61.05 16.49L61.05 16.49Q60.58 17.08 59.61 17.43L59.61 17.43L59.61 17.43Q58.63 17.78 57.18 17.78L57.18 17.78L57.18 17.78Q55.73 17.78 54.91 17.46L54.91 17.46L54.91 17.46Q54.08 17.14 54.08 16.55L54.08 16.55L54.08 16.55Q54.08 16.14 54.49 15.81L54.49 15.81L54.49 15.81Q54.89 15.47 55.72 15.27L55.72 15.27L55.86 15.50L55.86 15.50Q55.48 15.96 55.48 16.39L55.48 16.39L55.48 16.39Q55.48 16.94 55.98 17.24L55.98 17.24L55.98 17.24Q56.48 17.54 57.37 17.54L57.37 17.54L57.37 17.54Q58.30 17.54 58.79 17.17L58.79 17.17L58.79 17.17Q59.29 16.80 59.29 16.18L59.29 16.18L59.29 16.18Q59.29 15.75 58.96 15.49L58.96 15.49L58.96 15.49Q58.63 15.23 57.81 15.23L57.81 15.23L57.05 15.23L57.05 15.23Q56.10 15.23 55.59 14.87L55.59 14.87L55.59 14.87Q55.09 14.50 55.09 13.89L55.09 13.89L55.09 13.89Q55.09 13.33 55.49 12.91L55.49 12.91L55.49 12.91Q55.89 12.49 56.64 12.12L56.64 12.12L56.64 12.12Q55.58 11.98 54.97 11.43L54.97 11.43L54.97 11.43Q54.36 10.88 54.36 9.93L54.36 9.93L54.36 9.93Q54.36 8.82 55.18 8.25L55.18 8.25L55.18 8.25Q56 7.69 57.37 7.69L57.37 7.69L57.37 7.69Q58.84 7.69 59.64 8.30L59.64 8.30L59.64 8.30Q59.91 7.94 60.28 7.73L60.28 7.73L60.28 7.73Q60.66 7.52 61.08 7.52L61.08 7.52L61.08 7.52Q61.54 7.52 61.80 7.78L61.80 7.78L61.80 7.78Q62.05 8.04 62.05 8.44L62.05 8.44L62.05 8.44Q62.05 8.83 61.84 9.06L61.84 9.06L61.84 9.06Q61.63 9.30 61.31 9.30L61.31 9.30ZM57.37 11.91L57.37 11.91Q57.65 11.91 57.80 11.46L57.80 11.46L57.80 11.46Q57.95 11.00 57.95 9.93L57.95 9.93L57.95 9.93Q57.95 8.85 57.80 8.39L57.80 8.39L57.80 8.39Q57.65 7.94 57.37 7.94L57.37 7.94L57.37 7.94Q57.09 7.94 56.95 8.39L56.95 8.39L56.95 8.39Q56.80 8.85 56.80 9.93L56.80 9.93L56.80 9.93Q56.80 11.00 56.95 11.46L56.95 11.46L56.95 11.46Q57.09 11.91 57.37 11.91L57.37 11.91ZM65.62 4.20L65.62 8.74L65.62 8.74Q66.25 7.69 67.84 7.69L67.84 7.69L67.84 7.69Q68.96 7.69 69.43 8.25L69.43 8.25L69.43 8.25Q69.64 8.50 69.73 8.93L69.73 8.93L69.73 8.93Q69.83 9.35 69.83 10.05L69.83 10.05L69.83 13.85L69.83 13.85Q69.83 14.42 70.01 14.64L70.01 14.64L70.01 14.64Q70.18 14.85 70.62 14.85L70.62 14.85L70.62 15.15L70.62 15.15Q69.10 15.09 68.66 15.09L68.66 15.09L68.66 15.09Q68.18 15.09 66.67 15.15L66.67 15.15L66.67 14.85L66.67 14.85Q67.03 14.85 67.17 14.64L67.17 14.64L67.17 14.64Q67.31 14.42 67.31 13.85L67.31 13.85L67.31 9.30L67.31 9.30Q67.31 8.85 67.15 8.63L67.15 8.63L67.15 8.63Q66.99 8.41 66.63 8.41L66.63 8.41L66.63 8.41Q66.22 8.41 65.92 8.70L65.92 8.70L65.92 8.70Q65.62 8.99 65.62 9.42L65.62 9.42L65.62 13.85L65.62 13.85Q65.62 14.42 65.76 14.64L65.76 14.64L65.76 14.64Q65.90 14.85 66.26 14.85L66.26 14.85L66.26 15.15L66.26 15.15Q64.86 15.09 64.41 15.09L64.41 15.09L64.41 15.09Q63.94 15.09 62.31 15.15L62.31 15.15L62.31 14.85L62.31 14.85Q62.75 14.85 62.92 14.64L62.92 14.64L62.92 14.64Q63.10 14.42 63.10 13.85L63.10 13.85L63.10 5.88L63.10 5.88Q63.10 5.24 62.92 4.94L62.92 4.94L62.92 4.94Q62.75 4.65 62.31 4.65L62.31 4.65L62.31 4.35L62.31 4.35Q62.75 4.40 63.18 4.40L63.18 4.40L63.18 4.40Q64.64 4.40 65.62 4.20L65.62 4.20ZM74.30 5.61L74.30 7.88L75.67 7.88L75.67 8.16L74.30 8.16L74.30 13.97L74.30 13.97Q74.30 14.25 74.40 14.36L74.40 14.36L74.40 14.36Q74.49 14.48 74.72 14.48L74.72 14.48L74.72 14.48Q74.89 14.48 75.10 14.38L75.10 14.38L75.10 14.38Q75.31 14.28 75.47 14.07L75.47 14.07L75.68 14.24L75.68 14.24Q75.04 15.34 73.70 15.34L73.70 15.34L73.70 15.34Q72.73 15.34 72.25 14.87L72.25 14.87L72.25 14.87Q71.96 14.57 71.87 14.14L71.87 14.14L71.87 14.14Q71.78 13.71 71.78 12.92L71.78 12.92L71.78 8.16L70.71 8.16L70.71 7.88L71.78 7.88L71.78 6.23L71.78 6.23Q72.53 6.23 73.14 6.08L73.14 6.08L73.14 6.08Q73.75 5.94 74.30 5.61L74.30 5.61Z"></path></g><defs data-v-423bf9ae=""><linearGradient data-v-423bf9ae="" gradientTransform="rotate(25)" id="af9ed6e7-4de8-491b-b016-697a47fae416" x1="0%" y1="0%" x2="100%" y2="0%"><stop data-v-423bf9ae="" offset="0%" style="stop-color: rgb(73, 36, 126); stop-opacity: 1;"></stop><stop data-v-423bf9ae="" offset="100%" style="stop-color: rgb(170, 73, 199); stop-opacity: 1;"></stop></linearGradient></defs><g data-v-423bf9ae="" id="55c2d0a6-c55a-4d99-8695-bba62ef5f93b" transform="matrix(1.097947630699176,0,0,1.097947630699176,-10.397381534958797,-9.930502491642173)" stroke="none" fill="url(#af9ed6e7-4de8-491b-b016-697a47fae416)"><g><path d="M50 90.5c22.368 0 40.5-18.132 40.5-40.5S72.368 9.5 50 9.5 9.5 27.632 9.5 50 27.632 90.5 50 90.5zm0-1c-21.815 0-39.5-17.685-39.5-39.5S28.185 10.5 50 10.5 89.5 28.185 89.5 50 71.815 89.5 50 89.5z"></path><circle cx="50" cy="50" r="25"></circle><circle transform="rotate(150 70 84.641)" cx="70" cy="84.641" r="5"></circle></g></g><!----></svg>