<svg data-v-fde0c5aa="" xmlns="http://www.w3.org/2000/svg" viewBox="0 0 300 300" class="iconLeft"><!----><defs data-v-fde0c5aa=""><!----></defs><rect data-v-fde0c5aa="" fill="transparent" x="0" y="0" width="300px" height="300px" class="logo-background-square"></rect><defs data-v-fde0c5aa=""><!----></defs><g data-v-fde0c5aa="" id="a2e55191-154e-4f85-83c4-f0bcb6b6e5d9" fill="#000000" transform="matrix(4.219966723782572,0,0,4.219966723782572,154.41642913003486,103.62256465926633)"><path d="M-0.35 17.78L-0.35 17.49L-0.35 17.49Q0.21 17.40 0.57 17.14L0.57 17.14L0.57 17.14Q0.92 16.87 1.12 16.21L1.12 16.21L1.12 16.21Q1.32 15.55 1.32 14.38L1.32 14.38L1.32 6.72L1.32 6.72Q1.32 6.19 1.24 5.95L1.24 5.95L1.24 5.95Q1.16 5.71 0.97 5.63L0.97 5.63L0.97 5.63Q0.77 5.54 0.32 5.52L0.32 5.52L0.32 5.24L0.32 5.24Q1.08 5.28 2.66 5.28L2.66 5.28L2.66 5.28Q4.30 5.28 5.15 5.24L5.15 5.24L5.15 5.52L5.15 5.52Q4.70 5.54 4.50 5.63L4.50 5.63L4.50 5.63Q4.30 5.71 4.23 5.95L4.23 5.95L4.23 5.95Q4.16 6.19 4.16 6.72L4.16 6.72L4.16 11.84L4.16 13.01L4.16 13.01Q4.16 13.82 4.11 14.43L4.11 14.43L4.11 14.43Q4.06 15.05 3.92 15.50L3.92 15.50L3.92 15.50Q3.58 16.52 2.51 17.15L2.51 17.15L2.51 17.15Q1.43 17.78-0.35 17.78L-0.35 17.78ZM13.13 7.73L13.13 13.62L13.13 13.62Q13.13 14.27 13.31 14.56L13.31 14.56L13.31 14.56Q13.48 14.85 13.92 14.85L13.92 14.85L13.92 15.15L13.92 15.15Q13.48 15.11 13.05 15.11L13.05 15.11L13.05 15.11Q11.59 15.11 10.61 15.30L10.61 15.30L10.61 14.29L10.61 14.29Q9.98 15.34 8.39 15.34L8.39 15.34L8.39 15.34Q7.27 15.34 6.80 14.78L6.80 14.78L6.80 14.78Q6.59 14.53 6.50 14.11L6.50 14.11L6.50 14.11Q6.40 13.68 6.40 12.98L6.40 12.98L6.40 9.41L6.40 9.41Q6.40 8.76 6.22 8.47L6.22 8.47L6.22 8.47Q6.05 8.18 5.61 8.18L5.61 8.18L5.61 7.88L5.61 7.88Q6.05 7.92 6.48 7.92L6.48 7.92L6.48 7.92Q7.94 7.92 8.92 7.73L8.92 7.73L8.92 13.73L8.92 13.73Q8.92 14.18 9.08 14.40L9.08 14.40L9.08 14.40Q9.24 14.62 9.60 14.62L9.60 14.62L9.60 14.62Q10.01 14.62 10.31 14.33L10.31 14.33L10.31 14.33Q10.61 14.04 10.61 13.61L10.61 13.61L10.61 9.41L10.61 9.41Q10.61 8.76 10.44 8.47L10.44 8.47L10.44 8.47Q10.26 8.18 9.83 8.18L9.83 8.18L9.83 7.88L9.83 7.88Q10.26 7.92 10.70 7.92L10.70 7.92L10.70 7.92Q12.15 7.92 13.13 7.73L13.13 7.73ZM17.72 4.20L17.72 13.85L17.72 13.85Q17.72 14.42 17.90 14.64L17.90 14.64L17.90 14.64Q18.07 14.85 18.51 14.85L18.51 14.85L18.51 15.15L18.51 15.15Q17.00 15.09 16.52 15.09L16.52 15.09L16.52 15.09Q16.04 15.09 14.42 15.15L14.42 15.15L14.42 14.85L14.42 14.85Q14.85 14.85 15.03 14.64L15.03 14.64L15.03 14.64Q15.20 14.42 15.20 13.85L15.20 13.85L15.20 5.88L15.20 5.88Q15.20 5.24 15.03 4.94L15.03 4.94L15.03 4.94Q14.85 4.65 14.42 4.65L14.42 4.65L14.42 4.35L14.42 4.35Q14.85 4.40 15.29 4.40L15.29 4.40L15.29 4.40Q16.74 4.40 17.72 4.20L17.72 4.20ZM25.02 7.83L21.88 14.94L22.08 14.94L22.08 14.94Q23.00 14.94 23.70 14.31L23.70 14.31L23.70 14.31Q24.39 13.69 24.50 12.26L24.50 12.26L24.78 12.26L24.78 12.26Q24.78 14.36 24.84 15.20L24.84 15.20L24.84 15.20Q23.67 15.15 22.09 15.15L22.09 15.15L22.09 15.15Q20.69 15.15 19.12 15.22L19.12 15.22L22.26 8.11L21.98 8.11L21.98 8.11Q21.07 8.11 20.41 8.73L20.41 8.73L20.41 8.73Q19.75 9.35 19.64 10.78L19.64 10.78L19.36 10.78L19.36 10.78Q19.36 8.68 19.31 7.84L19.31 7.84L19.31 7.84Q20.47 7.90 22.05 7.90L22.05 7.90L22.05 7.90Q23.45 7.90 25.02 7.83L25.02 7.83Z"></path></g><defs data-v-fde0c5aa=""><!----></defs><g data-v-fde0c5aa="" id="2688e829-eed9-49f8-9c68-645982e4ded3" stroke="none" fill="#000000" transform="matrix(0.3888137381238218,0,0,0.3888137381238218,4.014824589583391,66.75198614984447)"><path d="M348.75 193.09a23.63 23.63 0 0 0-35.7-13.93l-53.22-64.55a6.62 6.62 0 1 0-11.54-4.19l-101.46 18.9a14.2 14.2 0 1 0-20.94 15.83l.34.18-24.56 53a7.08 7.08 0 1 0-2 13.86 7.13 7.13 0 0 0 4.12-1.32l91.19 95.8a10.83 10.83 0 0 0 2.67 16.48 10.78 10.78 0 0 0 5.48 1.5 11 11 0 0 0 2.75-.35 10.85 10.85 0 0 0 5.84-17.14l97.63-91.3a23.76 23.76 0 0 0 4.58 3.53 23.51 23.51 0 0 0 11.95 3.27 23.81 23.81 0 0 0 6-.77 23.66 23.66 0 0 0 16.95-28.84zm-19.46 19.17a13.57 13.57 0 0 1-10.35-1.44 13.76 13.76 0 0 1-2.34-1.74 13.77 13.77 0 0 1-4-6.6 13.79 13.79 0 0 1-.36-2.07 13 13 0 0 1 .82-6.23 13.81 13.81 0 0 1 1-2.06c.06-.1.13-.19.19-.29a13.79 13.79 0 0 1 1.22-1.67 13.48 13.48 0 0 1 4-3.19 13.58 13.58 0 0 1 6.39-1.59 13.66 13.66 0 0 1 3.41 26.88zM207.78 312.63a4.81 4.81 0 0 1-.51 3.67 4.85 4.85 0 1 1-8.35-4.91c.06-.1.13-.18.2-.27a4.78 4.78 0 0 1 1.28-1.28l.17-.1a4.82 4.82 0 0 1 1.31-.58c.16 0 .31-.07.47-.09a4.88 4.88 0 0 1 .75-.07 5 5 0 0 1 2.45.67c.11.07.2.15.31.22a4.77 4.77 0 0 1 1.37 1.46 4.82 4.82 0 0 1 .55 1.28zm-7.42-9.28l-.17.05-37.57-99 34.25-.93 4.71 99.59a11 11 0 0 0-1.22.3zM100.91 208a3.08 3.08 0 1 1-1.28-5.88H100.21a3 3 0 0 1 1 .35 3 3 0 0 1 1.39 3.5v.08a3.07 3.07 0 0 1-.21.49s0 .1-.07.15a3.06 3.06 0 0 1-1.41 1.31zm26.82-78.19a6.17 6.17 0 0 1 11.16 1c.07.18.15.35.2.54a6.23 6.23 0 0 1 .19 1.42v.18a6.13 6.13 0 0 1-.39 2.12 6.27 6.27 0 0 1-.47 1 6.2 6.2 0 0 1-7 2.83h-.14a6.23 6.23 0 0 1-1.34-.58l-.33-.22a6.21 6.21 0 0 1-1.88-8.34zm17.6 10.34a14.27 14.27 0 0 0 1.32-3l43.12 11.18L150.3 172l-10.17-26.78a14.11 14.11 0 0 0 5.2-5.12zm107.31-31.22a2.6 2.6 0 0 1 1.6-1.21 2.66 2.66 0 0 1 .66-.08 2.61 2.61 0 0 1 2.3 3.85v.1a2.59 2.59 0 0 1-1.28 1.09l-.29.11a2.61 2.61 0 0 1-1.34 0 3.5 3.5 0 0 1-.68-.27l-.19-.14a2.58 2.58 0 0 1-.67-.7l-.11-.18a2.62 2.62 0 0 1-.24-.58 2.66 2.66 0 0 1 0-.27 2.69 2.69 0 0 1 .32-1.71zm-51.77 77.67a4.53 4.53 0 1 1-3.9-6.83 4.44 4.44 0 0 1 3.76 2.1 3.83 3.83 0 0 1 .68 1.88 4.49 4.49 0 0 1-.54 2.8zm3.18-7l17.35-23.08 21.26 5.51a11.9 11.9 0 0 0 .27 4.68v.07l-38.36 13.76a8.53 8.53 0 0 0-.57-1.02zm47.72-63.6a6.58 6.58 0 0 0 2.07.7l-.28 35a11.91 11.91 0 0 0-9.37 5.84c-.06.1-.1.2-.16.3l-20.12-4.79zm8.49 48.77a5.88 5.88 0 0 1-.69 1.83 6 6 0 0 1-.66.91 5.9 5.9 0 0 1-9.59-1 6 6 0 0 1-.77-3.06 6 6 0 0 1 4.45-5.55c.18 0 .36-.07.53-.1a5.92 5.92 0 0 1 1-.09 6.25 6.25 0 0 1 3 .82 5.93 5.93 0 0 1 2.73 6.27zM250 114.65l-30.46 37.4-21.77-5.18 52.11-32.36zm-33.08 40.62l-17.06 21a8.51 8.51 0 0 0-11.38 8.82l-30.72 6.6-6.12-16.12 42.22-26.23zM153 192.66l-44.3 9.51 38.48-23.9zm.76 1.88l3.24 8.06-46.64 1.26zm4.68-1l30.45-6.54a8.44 8.44 0 0 0 7.47 5.74l.42 8.78-34.91.94zm39.88-.88a8.49 8.49 0 0 0 6.91-10.32l38.37-13.76a11.89 11.89 0 0 0 20.7 1.69l.59.3 11.41 5.72 13.11 6.48 13.16 6.4 1.45.7a23.39 23.39 0 0 0-1.85 8.81l-103.42 2.79zm110.98-10.5a23.75 23.75 0 0 0-3.84 4.89l-.1.18-1.43-.73-13.06-6.6-13.1-6.52-11.46-5.62-.57-.28a11.89 11.89 0 0 0-10.18-15.7l.28-35a6.67 6.67 0 0 0 2.27-.76zm-60.64-69.77c0 .11.08.22.13.33l-55.12 33.18-46.51-11.08a14.08 14.08 0 0 0 0-3.53zM128 146.18a13.76 13.76 0 0 0 6.55.85l11.19 27.7-41.58 25a7 7 0 0 0-.72-.53zm-22.85 63.37a7.09 7.09 0 0 0 .55-.8 7 7 0 0 0 .92-2.78l51.19-1.38 40.27 99.64a10.73 10.73 0 0 0-1.75 1.12zm105.1 96.2a11 11 0 0 0-1.71-1.24 10.79 10.79 0 0 0-5-1.49l-4.71-99.54 103.39-2.79A23.91 23.91 0 0 0 303 205a23.54 23.54 0 0 0 5 9.46z" data-name="Immersive experience"></path></g><!----></svg>
