<?xml version="1.0" standalone="no"?>
<!DOCTYPE svg PUBLIC "-//W3C//DTD SVG 20010904//EN"
 "http://www.w3.org/TR/2001/REC-SVG-20010904/DTD/svg10.dtd">
<svg version="1.0" xmlns="http://www.w3.org/2000/svg"
 width="2560.000000pt" height="2560.000000pt" viewBox="0 0 2560.000000 2560.000000"
 preserveAspectRatio="xMidYMid meet">

<g transform="translate(0.000000,2560.000000) scale(0.100000,-0.100000)"
fill="#6320D6" stroke="none">
<path d="M16038 23710 c-268 -45 -477 -248 -532 -513 -9 -42 -16 -94 -16 -116
0 -35 -3 -40 -27 -45 -136 -28 -9966 -1856 -9981 -1856 -16 0 -26 18 -52 93
-105 305 -307 559 -586 739 -115 74 -302 149 -454 183 -114 26 -372 31 -501
11 -212 -34 -437 -128 -604 -253 -320 -241 -514 -570 -566 -960 -14 -108 -7
-326 16 -441 71 -365 291 -693 605 -900 47 -30 87 -57 89 -59 2 -1 -115 -258
-259 -570 -145 -313 -310 -667 -366 -788 -166 -360 -1220 -2633 -1517 -3273
-151 -327 -277 -596 -280 -599 -3 -2 -32 1 -64 8 -80 17 -227 14 -304 -5 -35
-9 -102 -35 -149 -58 -69 -34 -102 -59 -176 -132 -75 -76 -98 -106 -132 -176
-46 -97 -82 -234 -82 -312 0 -73 42 -235 80 -311 108 -212 297 -344 547 -378
137 -20 320 19 435 91 27 16 51 30 53 30 1 0 218 -226 481 -502 263 -277 2287
-2404 4499 -4727 2211 -2323 4021 -4228 4023 -4232 2 -5 -12 -28 -31 -51 -86
-107 -161 -264 -199 -415 -19 -74 -22 -114 -22 -248 1 -141 4 -172 28 -260
177 -661 895 -991 1501 -690 129 63 216 127 308 224 335 356 387 903 124 1309
-26 40 -47 76 -47 80 0 11 9621 9007 9637 9010 8 2 40 -20 71 -50 305 -289
735 -500 1180 -580 111 -20 159 -23 382 -22 194 0 279 4 355 18 412 70 747
213 1070 455 124 94 337 305 432 431 266 352 429 765 474 1200 16 154 6 451
-20 595 -25 142 -39 202 -51 223 -5 9 -24 62 -41 117 -71 227 -199 476 -348
676 -385 517 -938 839 -1584 924 -135 17 -409 20 -542 5 -309 -36 -663 -152
-912 -300 -74 -44 -101 -55 -109 -47 -10 10 -5211 6322 -5236 6354 -7 9 1 28
26 61 91 124 132 266 123 426 -9 171 -67 298 -191 422 -65 65 -98 89 -166 122
-131 63 -263 83 -392 62z m195 -410 c97 -36 166 -135 167 -237 1 -225 -244
-342 -421 -202 -83 66 -111 182 -71 297 47 132 187 193 325 142z m-699 -466
c4 -9 5 -18 4 -20 -11 -10 -5426 -3267 -5439 -3271 -11 -3 -4447 1046 -4580
1083 -14 4 -16 28 -16 179 1 96 1 175 1 176 2 1 10001 1867 10012 1868 7 0 15
-6 18 -15z m118 -217 c-5 -7 -681 -838 -1502 -1847 -821 -1009 -1494 -1837
-1496 -1838 -3 -4 -2108 495 -2137 506 -12 5 672 435 2555 1604 1415 878 2577
1594 2581 1591 4 -3 4 -10 -1 -16z m283 -163 c44 -14 86 -28 94 -30 12 -4 13
-92 7 -572 -3 -312 -8 -927 -11 -1367 -3 -440 -8 -963 -11 -1161 l-6 -361 -57
-6 c-113 -12 -254 -56 -376 -116 -189 -95 -346 -233 -458 -403 -28 -43 -54
-78 -58 -78 -12 0 -1972 469 -1975 473 -2 2 614 826 1368 1830 948 1261 1378
1826 1388 1823 8 -3 51 -17 95 -32z m871 -407 c289 -375 1643 -2125 4151
-5364 299 -386 546 -709 549 -718 4 -9 -22 -45 -76 -102 -93 -99 -201 -239
-256 -332 -21 -35 -42 -65 -48 -67 -6 -2 -342 163 -746 367 -852 429 -1832
917 -2615 1301 -302 149 -551 271 -552 272 -2 2 4 25 12 52 60 206 58 471 -5
678 -99 319 -348 597 -652 728 -95 41 -213 75 -294 84 -29 4 -56 9 -61 13 -7
5 7 2321 19 3245 l3 208 84 24 c45 14 95 31 110 39 14 8 28 14 31 14 3 0 158
-199 346 -442z m-12542 -632 c166 -43 310 -164 390 -325 51 -105 66 -167 66
-274 -1 -273 -194 -521 -460 -591 -73 -19 -222 -19 -307 1 -158 36 -324 167
-396 311 -153 311 -30 679 277 828 51 25 113 49 137 54 74 15 230 12 293 -4z
m3306 -1561 c1136 -294 2083 -540 2104 -545 l39 -11 -1952 -1170 c-1074 -643
-1954 -1168 -1956 -1166 -1 2 -228 597 -503 1323 -360 945 -498 1321 -489
1326 71 40 211 152 292 234 146 147 279 356 326 514 12 41 14 42 43 37 17 -4
960 -247 2096 -542z m-3919 -360 c123 -43 263 -66 434 -71 93 -2 170 -5 172
-7 2 -1 250 -614 553 -1362 419 -1038 546 -1362 537 -1370 -7 -6 -931 -563
-2054 -1238 l-2042 -1227 -36 27 c-24 18 -34 32 -30 43 11 29 2418 5221 2420
5221 1 0 22 -7 46 -16z m7596 -585 c620 -160 1131 -294 1134 -297 5 -6 -1616
-2011 -1665 -2060 -10 -11 -26 -9 -87 8 -212 59 -472 19 -659 -102 -83 -53
-225 -196 -269 -271 -75 -127 -110 -249 -118 -405 -4 -69 -10 -115 -17 -118
-24 -8 -2990 -644 -3007 -644 -12 0 -24 16 -37 53 -11 28 -147 385 -302 792
l-281 740 22 15 c55 37 4145 2579 4151 2580 4 0 514 -131 1135 -291z m2644
-695 l1037 -269 -1 -145 c0 -98 5 -173 17 -234 9 -48 16 -89 14 -90 -7 -6
-3777 -1356 -3785 -1356 -4 0 -19 20 -32 45 l-24 45 133 177 c957 1277 1584
2104 1593 2100 7 -2 478 -125 1048 -273z m2413 122 c88 -34 128 -58 195 -121
154 -143 220 -372 167 -575 -51 -194 -223 -366 -417 -416 -86 -23 -227 -23
-304 0 -246 73 -410 275 -432 532 -22 263 172 523 447 599 87 24 256 14 344
-19z m-1234 -1122 c53 -96 136 -199 232 -290 346 -327 876 -405 1307 -192 57
28 139 77 181 109 81 61 227 208 257 259 13 23 22 28 38 24 11 -4 427 -211
925 -460 857 -428 1485 -738 2465 -1216 237 -116 449 -219 473 -229 23 -10 42
-23 42 -28 0 -5 -14 -47 -31 -93 -77 -208 -126 -440 -136 -635 -3 -67 -9 -126
-12 -132 -6 -10 -10206 -290 -10215 -280 -2 2 -11 159 -20 349 -9 190 -19 384
-22 432 l-6 87 28 6 c309 65 544 276 640 575 21 68 28 110 31 210 3 69 1 148
-4 177 l-10 51 1011 363 c556 199 1403 503 1881 675 479 172 878 313 887 313
11 1 31 -26 58 -75z m-9279 -1582 c157 -389 285 -709 283 -711 -4 -5 -4358
-940 -4362 -936 -3 3 3779 2354 3788 2354 3 1 134 -318 291 -707z m4762 538
c117 -36 223 -134 280 -257 19 -41 22 -65 22 -168 0 -114 -2 -123 -32 -188
-44 -93 -119 -169 -211 -214 -64 -32 -85 -37 -163 -41 -49 -3 -109 1 -134 7
-134 34 -243 123 -304 250 -35 73 -36 80 -36 187 0 107 1 112 38 187 22 45 58
97 86 125 51 51 146 106 207 121 70 16 178 12 247 -9z m12852 -555 c552 -119
942 -509 1067 -1066 30 -134 32 -376 5 -511 -56 -281 -186 -518 -392 -716
-196 -190 -428 -312 -690 -363 -108 -22 -398 -19 -510 5 -474 99 -855 433
-1018 892 -74 207 -91 505 -42 718 61 262 195 497 392 687 215 207 484 332
803 373 67 8 315 -4 385 -19z m-13746 -220 c84 -179 213 -312 390 -400 80 -40
203 -75 262 -75 21 0 41 -5 44 -11 8 -11 50 -857 44 -863 -4 -3 -3035 -84
-3322 -89 l-129 -2 -165 430 c-90 237 -165 434 -166 439 -1 7 2881 637 2995
655 4 0 25 -37 47 -84z m-3346 -1057 c86 -215 154 -394 151 -397 -3 -3 -951
-31 -2107 -62 -1156 -31 -2187 -59 -2292 -62 -104 -3 -184 -3 -176 0 25 10
4216 911 4242 912 24 1 32 -16 182 -391z m14516 -300 c56 -440 226 -849 493
-1187 l67 -86 -32 -31 c-18 -17 -239 -225 -492 -461 -253 -236 -2407 -2247
-4786 -4469 -2379 -2222 -4331 -4044 -4338 -4048 -7 -4 -39 13 -79 42 -81 60
-193 122 -285 156 -72 27 -208 56 -263 56 -18 0 -36 6 -41 13 -7 12 -475 9819
-468 9825 3 3 9891 277 10141 281 l71 1 12 -92z m-19891 -77 c137 -70 201
-216 158 -362 -64 -223 -344 -297 -509 -135 -58 58 -80 109 -85 202 -4 72 -1
89 20 135 43 93 125 159 221 179 63 13 148 5 195 -19z m9473 -113 c6 -26 464
-9825 459 -9831 -11 -13 -134 -40 -138 -31 -203 520 -3705 9770 -3699 9773 22
9 3376 97 3378 89z m-1874 -5016 c1090 -2699 1985 -4914 1988 -4923 4 -10 -3
-20 -22 -28 -15 -7 -54 -30 -85 -52 -32 -21 -60 -39 -63 -39 -2 0 -2001 2098
-4442 4662 -2440 2565 -4466 4693 -4501 4730 l-65 68 25 38 c47 71 79 143 101
230 l23 87 104 3 c462 14 4733 130 4830 131 l125 1 1982 -4908z m2623 -5429
c76 -21 118 -44 180 -100 117 -105 166 -225 158 -386 -5 -86 -9 -103 -48 -183
-56 -116 -129 -191 -237 -242 -77 -37 -80 -37 -203 -37 -125 0 -125 0 -203 38
-172 84 -277 248 -277 432 0 134 48 242 155 351 134 137 290 178 475 127z"/>
</g>
</svg>
