<svg data-v-423bf9ae="" xmlns="http://www.w3.org/2000/svg" viewBox="0 0 100 100"><!----><!----><!----><g data-v-423bf9ae="" id="c168ba09-e4fc-4c4f-8512-8c2b7f38f91a" fill="#000000" transform="matrix(4.418261864764637,0,0,4.418261864764637,110.480142420151,-3.5567004198063827)"></g><defs data-v-423bf9ae=""><linearGradient data-v-423bf9ae="" gradientTransform="rotate(25)" id="af9ed6e7-4de8-491b-b016-697a47fae416" x1="0%" y1="0%" x2="100%" y2="0%"><stop data-v-423bf9ae="" offset="0%" style="stop-color: rgb(73, 36, 126); stop-opacity: 1;"></stop><stop data-v-423bf9ae="" offset="100%" style="stop-color: rgb(170, 73, 199); stop-opacity: 1;"></stop></linearGradient></defs><g data-v-423bf9ae="" id="55c2d0a6-c55a-4d99-8695-bba62ef5f93b" transform="matrix(1.097947630699176,0,0,1.097947630699176,-10.397381534958797,-9.930502491642173)" stroke="none" fill="url(#af9ed6e7-4de8-491b-b016-697a47fae416)"><g><path d="M50 90.5c22.368 0 40.5-18.132 40.5-40.5S72.368 9.5 50 9.5 9.5 27.632 9.5 50 27.632 90.5 50 90.5zm0-1c-21.815 0-39.5-17.685-39.5-39.5S28.185 10.5 50 10.5 89.5 28.185 89.5 50 71.815 89.5 50 89.5z"></path><circle cx="50" cy="50" r="25"></circle><circle transform="rotate(150 70 84.641)" cx="70" cy="84.641" r="5"></circle></g></g><!----></svg>
