<svg id="P-4" xmlns="http://www.w3.org/2000/svg" width="111" height="123" viewBox="0 0 111 123">
  <path id="Fill_1" data-name="Fill 1" d="M76.964,116H3.036A3.035,3.035,0,0,1,0,112.966V3.033A3.035,3.035,0,0,1,3.036,0H76.964A3.035,3.035,0,0,1,80,3.033V112.966A3.035,3.035,0,0,1,76.964,116" transform="translate(21 6)" fill="#fff"/>
  <path id="Fill_3" data-name="Fill 3" d="M77.9,118H3.1c-1.71,0-3.1-1.722-3.1-3.839V3.838C0,1.722,1.391,0,3.1,0H77.9C79.609,0,81,1.722,81,3.838V114.161C81,116.278,79.609,118,77.9,118ZM3.1,1.588a2.071,2.071,0,0,0-1.818,2.25V114.161A2.072,2.072,0,0,0,3.1,116.412H77.9a2.072,2.072,0,0,0,1.818-2.251V3.838A2.071,2.071,0,0,0,77.9,1.588Z" transform="translate(21 5)"/>
  <path id="Fill_1-2" data-name="Fill 1" d="M76.964,116H3.036A3.035,3.035,0,0,1,0,112.966V3.033A3.035,3.035,0,0,1,3.036,0H76.964A3.035,3.035,0,0,1,80,3.033V112.966A3.035,3.035,0,0,1,76.964,116" transform="translate(31)" fill="#525252" opacity="0.388"/>
  <path id="Fill_5" data-name="Fill 5" d="M0,2H29V0H0Z" transform="translate(31 58)"/>
  <path id="Fill_7" data-name="Fill 7" d="M0,2H29V0H0Z" transform="translate(31 68)"/>
  <path id="Fill_8" data-name="Fill 8" d="M0,2H42V0H0Z" transform="translate(48 96)"/>
  <path id="Fill_9" data-name="Fill 9" d="M0,2H20V0H0Z" transform="translate(48 84)"/>
  <path id="Fill_10" data-name="Fill 10" d="M0,2H42V0H0Z" transform="translate(48 107)"/>
  <g id="Group_2" data-name="Group 2" transform="translate(0 15)">
    <path id="Fill_11" data-name="Fill 11" d="M0,2H65V0H0Z" transform="translate(2 1.5)" opacity="0.713"/>
    <path id="Fill_12" data-name="Fill 12" d="M0,2H65V0H0Z" transform="translate(2 13.5)" opacity="0.713"/>
    <path id="Fill_13" data-name="Fill 13" d="M0,2H65V0H0Z" transform="translate(2 25.5)" opacity="0.713"/>
    <path id="Fill_14" data-name="Fill 14" d="M33.809,29H32.737v-.383H1.072V29H0V27.921H.381V15.04H0V13.961H.381V1.08H0V0H1.072V.384H32.737V0h1.072V.384h34.12V0H69V1.08h-.382V27.921H69V29H67.928v-.383H33.809V29Zm-1.072-1.08h1.072V28.3h34.12v-.383h.381V1.08h-.381V.7H33.809V1.08H32.737V.7H1.072V1.08H.691V13.961h.381V15.04H.691V27.921h.381V28.3H32.737v-.382Z" opacity="0.713"/>
  </g>
</svg>
