<svg id="P-2" xmlns="http://www.w3.org/2000/svg" xmlns:xlink="http://www.w3.org/1999/xlink" width="79" height="112" viewBox="0 0 79 112">
  <defs>
    <clipPath id="clip-path">
      <path id="Clip_14" data-name="Clip 14" d="M0,0H12.855V6.929H0Z" transform="translate(0 0.025)" fill="none"/>
    </clipPath>
    <clipPath id="clip-path-2">
      <path id="Clip_21" data-name="Clip 21" d="M0,0H3V20H0Z" fill="none"/>
    </clipPath>
  </defs>
  <path id="Fill_1" data-name="Fill 1" d="M28.623,71H17.549a6.247,6.247,0,0,1-6.228-6.251V53.732A24.4,24.4,0,0,0,5.464,38.027,22.983,22.983,0,0,1,.151,25.771,25.615,25.615,0,0,1,3.072,11.036a18.656,18.656,0,0,1,8.012-8A25.8,25.8,0,0,1,23.034,0,23.032,23.032,0,0,1,46,23.09a23.141,23.141,0,0,1-5.464,14.936,24.433,24.433,0,0,0-5.684,15.8V64.749A6.247,6.247,0,0,1,28.623,71ZM23.032,1.416a24.4,24.4,0,0,0-11.3,2.879,17.261,17.261,0,0,0-7.411,7.394,24.217,24.217,0,0,0-2.77,13.919,21.572,21.572,0,0,0,4.987,11.5,25.807,25.807,0,0,1,6.192,16.619V64.749a4.836,4.836,0,0,0,4.821,4.839H28.623a4.836,4.836,0,0,0,4.821-4.839V53.823a25.848,25.848,0,0,1,6.02-16.711A21.724,21.724,0,0,0,34.212,4.564,21.44,21.44,0,0,0,23.032,1.416Z" transform="translate(16 28)"/>
  <path id="Fill_3" data-name="Fill 3" d="M37,18.653C37,5.238,22.955-4.869,8.882,2.465a15.017,15.017,0,0,0-6.4,6.414C-1.75,17.068-.214,25.254,4.4,30.724a20.929,20.929,0,0,1,5,13.471v9.183A4.6,4.6,0,0,0,13.978,58h9.188a4.6,4.6,0,0,0,4.584-4.622V44.271a21.011,21.011,0,0,1,4.855-13.548A18.669,18.669,0,0,0,37,18.653" transform="translate(29 40)" fill="#ff0" opacity="0.66"/>
  <path id="Fill_5" data-name="Fill 5" d="M21,4c0,2.209-4.7,4-10.5,4S0,6.209,0,4,4.7,0,10.5,0,21,1.791,21,4" transform="translate(28 104)"/>
  <path id="Fill_7" data-name="Fill 7" d="M.645,7,0,5.817,12.355,0,13,1.182Z" transform="translate(66 35)"/>
  <path id="Fill_9" data-name="Fill 9" d="M1.013,12,0,11.018,11.987,0,13,.982Z" transform="translate(60 20)"/>
  <path id="Fill_11" data-name="Fill 11" d="M1.365,19,0,18.505,7.635,0,9,.495Z" transform="translate(50 5)"/>
  <g id="Group_15" data-name="Group 15" transform="translate(0 34)">
    <path id="Clip_14-2" data-name="Clip 14" d="M0,0H12.855V6.929H0Z" transform="translate(0 0.025)" fill="none"/>
    <g id="Group_15-2" data-name="Group 15" clip-path="url(#clip-path)">
      <path id="Fill_13" data-name="Fill 13" d="M12.211,6.929,0,1.169.644,0,12.855,5.759Z" transform="translate(0 0.025)"/>
    </g>
  </g>
  <path id="Fill_16" data-name="Fill 16" d="M11.979,12,0,.979,1.021,0,13,11.021Z" transform="translate(6 19)"/>
  <path id="Fill_18" data-name="Fill 18" d="M7.628,19,0,.492,1.372,0,9,18.508Z" transform="translate(20 5)"/>
  <g id="Group_22" data-name="Group 22" transform="translate(39)">
    <path id="Clip_21-2" data-name="Clip 21" d="M0,0H3V20H0Z" fill="none"/>
    <g id="Group_22-2" data-name="Group 22" clip-path="url(#clip-path-2)">
      <path id="Fill_20" data-name="Fill 20" d="M.054,20,0,0,1.946,0,2,20Z"/>
    </g>
  </g>
</svg>
