<svg xmlns="http://www.w3.org/2000/svg" xmlns:xlink="http://www.w3.org/1999/xlink" width="107.704" height="110.857" viewBox="0 0 107.704 110.857">
  <defs>
    <clipPath id="clip-path">
      <path id="Clip_2" data-name="Clip 2" d="M0,0H78.986V86.865H0Z" transform="translate(0 0.008)" fill="none"/>
    </clipPath>
  </defs>
  <g id="P-3" transform="translate(0 -0.008)">
    <g id="Group_3" data-name="Group 3">
      <path id="Clip_2-2" data-name="Clip 2" d="M0,0H78.986V86.865H0Z" transform="translate(0 0.008)" fill="none"/>
      <g id="Group_3-2" data-name="Group 3" clip-path="url(#clip-path)">
        <path id="Fill_1" data-name="Fill 1" d="M49.24,86.866h0L15.987,47.845a39.849,39.849,0,0,1-7.923-14.6L.228,6.852A5.27,5.27,0,0,1,1.858,1.3,5.241,5.241,0,0,1,7.583.52L32.573,12.354A39.743,39.743,0,0,1,45.9,22.561l33.09,38.827L49.241,86.865ZM5.3,1.421A3.912,3.912,0,0,0,1.584,6.447L9.419,32.837a38.465,38.465,0,0,0,7.643,14.087L49.4,84.866,76.991,61.232,44.82,23.483a38.331,38.331,0,0,0-12.852-9.846L6.98,1.8A3.888,3.888,0,0,0,5.3,1.421Z" transform="translate(0 0.008)"/>
      </g>
    </g>
    <path id="Fill_4" data-name="Fill 4" d="M25,7.461,6.193,24,0,16.539,18.807,0Z" transform="translate(55 65)"/>
    <path id="Fill_6" data-name="Fill 6" d="M7.367,26h0L0,17.461,20.633,0,28,8.539,7.367,26ZM20.475,2h0L2.019,17.617,7.525,24,25.981,8.383,20.475,2Z" transform="translate(54 64)"/>
    <path id="Fill_8" data-name="Fill 8" d="M0,11.064,27,29,13.139,0Z" transform="translate(65 75)"/>
    <path id="Fill_10" data-name="Fill 10" d="M14.082,2.8A8,8,0,1,1,2.8,1.918,8,8,0,0,1,14.082,2.8" transform="translate(13 15)"/>
    <g id="Fill_12_Clip_16_Fill_15_Mask" data-name="Fill 12 + Clip 16 + Fill 15 Mask" transform="translate(25 33)">
      <path id="Fill_12" data-name="Fill 12" d="M0,0,61.9,7.653,20.355,23.839Z" transform="translate(20.806 0)" fill="#f5a623" opacity="0.612"/>
      <path id="Fill_15" data-name="Fill 15" d="M2.59,0,0,61.009,22.6,22.943Z" transform="translate(0 16.856)" fill="#f5a623" opacity="0.612"/>
    </g>
  </g>
</svg>
